<?xml version="1.0" encoding="UTF-8" standalone="no"?>
<!DOCTYPE svg PUBLIC "-//W3C//DTD SVG 1.1//EN" "http://www.w3.org/Graphics/SVG/1.1/DTD/svg11.dtd">
<svg width="100%" height="100%" viewBox="0 0 512 512" version="1.1" xmlns="http://www.w3.org/2000/svg" xmlns:xlink="http://www.w3.org/1999/xlink" xml:space="preserve" xmlns:serif="http://www.serif.com/" style="fill-rule:evenodd;clip-rule:evenodd;stroke-linejoin:round;stroke-miterlimit:2;">
    <g transform="matrix(1,0,0,1,-562,0)">
        <rect id="Artboard1" x="562" y="0" width="512" height="512" style="fill:none;"/>
        <clipPath id="_clip1">
            <rect id="Artboard11" serif:id="Artboard1" x="562" y="0" width="512" height="512"/>
        </clipPath>
        <g clip-path="url(#_clip1)">
            <g transform="matrix(6.256619,0,0,6.256619,256.468432,-667.265395)">
                <g transform="matrix(83.333333,0,0,83.333333,49,176.399515)">
                    <path d="M0.75,0.029C0.722,0.006 0.698,-0.017 0.678,-0.041C0.663,-0.014 0.646,0.012 0.626,0.038C0.605,0.065 0.582,0.09 0.556,0.113L0.456,0.063C0.429,0.073 0.392,0.085 0.345,0.1C0.297,0.115 0.239,0.13 0.17,0.145L0.07,0.095L0.05,-0.068L0.093,-0.074C0.09,-0.085 0.087,-0.098 0.082,-0.116C0.076,-0.133 0.071,-0.15 0.066,-0.169C0.061,-0.187 0.056,-0.203 0.051,-0.217L0.094,-0.24L0.076,-0.249L0.076,-0.402L0.135,-0.407L0.102,-0.423L0.102,-0.433L0.084,-0.442L0.043,-0.63C0.072,-0.653 0.097,-0.677 0.116,-0.7C0.135,-0.723 0.149,-0.743 0.158,-0.759C0.167,-0.774 0.172,-0.782 0.172,-0.782L0.288,-0.792L0.388,-0.742C0.388,-0.742 0.39,-0.74 0.393,-0.735C0.396,-0.73 0.402,-0.724 0.409,-0.716C0.409,-0.725 0.41,-0.764 0.41,-0.774L0.536,-0.765L0.536,-0.823L0.692,-0.837L0.792,-0.787L0.792,-0.701L0.799,-0.702L0.899,-0.652L0.899,-0.48L0.814,-0.471L0.918,-0.419L0.918,-0.247L0.803,-0.237C0.828,-0.184 0.872,-0.135 0.935,-0.092L0.85,0.079L0.75,0.029ZM0.822,-0.138C0.791,-0.159 0.765,-0.183 0.742,-0.21C0.719,-0.237 0.701,-0.265 0.688,-0.296L0.808,-0.306L0.808,-0.458L0.678,-0.447C0.679,-0.46 0.68,-0.474 0.681,-0.488C0.682,-0.502 0.682,-0.516 0.682,-0.529L0.789,-0.539L0.789,-0.691L0.682,-0.681L0.682,-0.826L0.546,-0.814L0.546,-0.669L0.525,-0.668C0.526,-0.682 0.526,-0.696 0.527,-0.71C0.528,-0.724 0.528,-0.739 0.528,-0.756L0.42,-0.763C0.42,-0.69 0.415,-0.632 0.406,-0.59C0.397,-0.546 0.387,-0.512 0.377,-0.486L0.468,-0.429L0.406,-0.423L0.406,-0.271L0.52,-0.281C0.507,-0.247 0.491,-0.215 0.472,-0.184C0.452,-0.153 0.428,-0.126 0.399,-0.103L0.4,-0.145C0.4,-0.145 0.396,-0.143 0.389,-0.141C0.382,-0.138 0.372,-0.134 0.36,-0.13C0.368,-0.147 0.375,-0.165 0.381,-0.182C0.387,-0.199 0.392,-0.214 0.396,-0.226C0.399,-0.238 0.401,-0.244 0.401,-0.244L0.323,-0.276C0.323,-0.276 0.321,-0.267 0.317,-0.249C0.313,-0.232 0.307,-0.21 0.298,-0.185L0.298,-0.279L0.375,-0.285L0.375,-0.418L0.298,-0.412L0.298,-0.451L0.353,-0.456L0.353,-0.538L0.37,-0.525L0.417,-0.68C0.384,-0.695 0.357,-0.71 0.337,-0.726C0.317,-0.741 0.303,-0.754 0.294,-0.765C0.286,-0.776 0.282,-0.781 0.282,-0.781L0.178,-0.772C0.178,-0.772 0.173,-0.764 0.165,-0.75C0.155,-0.735 0.142,-0.716 0.124,-0.694C0.106,-0.671 0.083,-0.649 0.054,-0.626L0.089,-0.462L0.112,-0.481L0.112,-0.434L0.169,-0.439L0.169,-0.4L0.086,-0.393L0.086,-0.26L0.169,-0.267L0.169,-0.147C0.166,-0.164 0.162,-0.183 0.157,-0.204C0.151,-0.225 0.146,-0.241 0.141,-0.254L0.062,-0.211C0.066,-0.199 0.07,-0.185 0.075,-0.17C0.08,-0.154 0.084,-0.138 0.089,-0.123C0.094,-0.108 0.097,-0.096 0.1,-0.087C0.103,-0.077 0.104,-0.072 0.104,-0.072L0.169,-0.104L0.169,-0.079C0.152,-0.074 0.135,-0.071 0.117,-0.068C0.099,-0.065 0.08,-0.062 0.061,-0.059L0.078,0.082C0.149,0.067 0.208,0.052 0.255,0.037C0.302,0.023 0.337,0.011 0.361,0.002C0.385,-0.008 0.397,-0.013 0.397,-0.013L0.397,-0.037L0.457,0.047C0.494,0.015 0.526,-0.022 0.552,-0.065C0.578,-0.107 0.597,-0.148 0.608,-0.189C0.621,-0.148 0.639,-0.111 0.663,-0.076C0.688,-0.042 0.715,-0.012 0.746,0.013L0.822,-0.138ZM0.189,-0.574C0.198,-0.583 0.207,-0.593 0.216,-0.605C0.226,-0.617 0.233,-0.627 0.237,-0.636C0.246,-0.625 0.256,-0.616 0.265,-0.608C0.274,-0.599 0.283,-0.591 0.292,-0.583L0.189,-0.574ZM0.488,-0.43C0.496,-0.45 0.503,-0.478 0.51,-0.514L0.546,-0.517C0.546,-0.49 0.545,-0.462 0.543,-0.435L0.488,-0.43ZM0.342,-0.124C0.337,-0.122 0.331,-0.12 0.324,-0.118C0.316,-0.115 0.307,-0.113 0.298,-0.112L0.298,-0.146L0.342,-0.124Z" style="fill:white;fill-rule:nonzero;"/>
                </g>
            </g>
        </g>
    </g>
</svg>
